<svg width="512" height="512" viewBox="0 0 512 512" fill="none" xmlns="http://www.w3.org/2000/svg">
<mask id="path-1-outside-1_3742_1596" maskUnits="userSpaceOnUse" x="11" y="87" width="490" height="337" fill="black">
<rect fill="white" x="11" y="87" width="490" height="337"/>
<path d="M32.9125 354.99C32.9125 353.176 32.7811 351.288 32.5948 348.856C32.4242 346.629 32.1976 343.836 32.1517 340.945L32.1325 340.021C32.0553 335.305 32.2744 329.283 32.2744 325.842C32.2744 320.686 32.3366 316.146 32.2158 311.546L32.1609 309.939C32.0943 308.319 31.9959 306.647 31.8908 304.79C31.7557 302.404 31.6113 299.737 31.575 297.008V297.006C31.5096 292.035 31.7773 286.136 31.8295 282.22L31.8331 282.037C31.9676 276.924 32.1394 272.667 32.0245 268.297C32.0228 268.235 32.0216 268.172 32.0208 268.11C31.957 263.19 31.569 259.882 31.3296 253.819L31.1959 250.141C31.0756 246.459 31 242.761 31 239.035C31 234.191 31.0653 229.335 31.2664 224.37L31.2747 224.191C31.5444 219.13 32.0121 214.058 32.452 209.341C32.8438 204.448 33.306 199.549 33.9068 194.606L33.9095 194.583C34.4984 189.803 35.1604 184.963 35.9612 180.021C36.6334 175.752 37.4126 169.775 38.8342 164.235L38.8928 164.017C40.2848 158.933 42.0378 153.537 44.407 148.26C46.6966 143.16 49.4443 138.172 52.6009 133.509C55.2145 129.648 59.0866 124.002 64.2675 119.558C64.2728 119.553 64.2787 119.549 64.284 119.544C68.8888 115.606 74.5822 112.079 80.8221 109.943C86.9535 107.744 93.9455 106.714 100.446 107.069C107.259 107.437 114.099 109.467 119.77 112.277C125.653 115.097 130.928 119.204 135.124 123.806C135.136 123.819 135.148 123.832 135.16 123.845C135.18 123.867 135.201 123.888 135.221 123.91C139.873 128.974 142.941 134.942 145.077 139.479C147.729 145.035 149.408 150.843 150.607 156.059C151.841 161.358 152.494 166.694 152.807 171.71L152.865 172.709L152.866 172.719C153.172 178.459 152.787 184.001 152.406 188.723C152.104 193.326 151.738 199.373 150.362 205.31L150.363 205.311C149.171 210.501 147.498 216.303 144.788 221.931L144.79 221.932C142.055 227.737 137.302 233.758 135.463 236.425C132.808 240.319 129.792 244.788 126.362 249.023L126.361 249.022C124.104 251.866 121.703 254.698 119.092 257.456C120.17 258.483 121.202 259.504 122.182 260.501L123.527 261.886L123.53 261.889C127.323 265.833 130.703 270.027 133.72 274.076C136.908 278.353 139.65 282.728 142.119 286.821C144.864 291.196 147.288 295.709 149.457 299.74C151.429 303.303 153.528 307.093 155.522 310.987L156.376 312.676L156.413 312.751C158.615 317.223 160.771 322.298 162.496 326.088C164.78 330.881 166.275 334.372 168.274 337.983C170.391 341.808 172.363 345.215 174.444 348.198L174.861 348.789L175.014 349.005C177.531 352.662 179.76 355.558 182.103 357.815L183.213 358.863C185.721 361.19 187.786 362.778 189.729 363.787C192.255 365.064 195.382 366.054 198.234 366.478L198.804 366.556L199.072 366.592C201.84 366.987 204.997 366.878 207.921 366.284C210.739 365.712 213.786 364.56 216.586 362.962C217.873 362.214 219.221 361.227 220.685 360.002C219.505 358.12 218.394 356.223 217.346 354.331C214.685 349.585 212.455 344.662 210.562 339.823C208.637 334.9 207.007 329.858 205.664 324.768C204.286 319.541 203.301 314.29 202.548 309.218C202.546 309.209 202.545 309.199 202.543 309.19C201.739 303.704 201.395 298.364 201.195 293.292C201.001 288.383 200.845 282.851 201.214 277.16L201.227 276.979C201.618 271.949 202.182 266.079 203.405 260.343C203.414 260.298 203.425 260.253 203.435 260.208C203.637 259.305 203.811 258.34 204.076 256.919C204.316 255.63 204.628 253.98 205.04 252.304C205.783 249.28 207.286 244.156 211.151 239.856C214.384 236.254 218.432 233.934 221.842 232.497C225.349 231.018 229.238 230.025 232.986 229.741L233.171 229.728C240.293 229.282 248.081 231.473 254.01 235.447L254.579 235.838L254.603 235.855C258.543 238.643 261.286 242.268 263.108 245.064C264.981 247.939 266.507 250.944 267.564 253.028C270.495 258.747 272.135 264.703 273.327 269.542C273.342 269.601 273.356 269.66 273.37 269.72C274.523 274.671 275.161 279.677 275.535 284.342L275.68 286.32L275.681 286.332C276.043 291.838 275.966 297.21 275.7 302.357L275.618 304.245C275.408 308.702 275.057 313.503 274.348 318.275C274.337 318.346 274.326 318.417 274.314 318.487C273.502 323.429 272.408 328.965 270.613 334.433C270.606 334.452 270.6 334.472 270.593 334.491C268.836 339.767 266.594 344.741 264.17 349.379C262.398 352.816 260.394 356.33 258.15 359.763C259.803 360.55 261.591 361.179 263.221 361.524C265.934 362.098 268.785 362.09 271.031 361.595C273.691 360.933 276.46 359.536 278.002 358.217L278.135 358.105C279.223 357.197 280.477 355.356 282.943 350.915L282.979 350.85C284.556 348.044 285.855 344.535 287.397 339.971C287.403 339.952 287.411 339.933 287.417 339.914C288.676 336.239 289.683 332.162 290.578 327.801C291.423 323.625 292.063 319.3 292.603 314.761C292.706 313.753 292.8 312.738 292.886 311.719C292.586 310.099 292.303 308.461 292.048 306.801C292.047 306.792 292.046 306.783 292.044 306.774C291.891 305.768 291.68 304.611 291.408 303.123C291.153 301.729 290.849 300.062 290.6 298.414C290.355 296.79 290.113 294.862 290.04 292.915C289.975 291.175 289.985 288.321 290.883 285.325C290.91 285.237 290.937 285.15 290.965 285.063C291.928 282.063 293.558 279.533 295.069 277.752C295.824 276.862 297.04 275.574 298.709 274.434C299.53 273.874 300.967 272.998 302.914 272.408C304.704 271.864 308.053 271.237 311.882 272.569C311.927 272.584 311.972 272.6 312.016 272.616C312.077 272.638 312.138 272.66 312.2 272.683C316.182 274.158 318.371 276.953 319.329 278.445C320.386 280.094 320.898 281.617 321.139 282.434C321.632 284.104 321.794 285.644 321.866 286.483C322.025 288.34 322.012 290.402 321.975 292.055C321.934 293.817 321.848 295.694 321.772 297.322C321.692 299.04 321.626 300.424 321.599 301.509V301.513C321.528 304.338 321.398 307.184 321.214 310.024C321.626 312.005 322.075 313.993 322.555 315.997C323.583 320.281 324.886 324.42 326.361 329.318C326.378 329.374 326.395 329.431 326.411 329.488C328.261 335.92 328.485 338.153 329.858 341.031C329.868 341.052 329.878 341.074 329.888 341.095C331.727 344.997 333.68 348.018 335.297 349.611L336.053 350.341C336.336 350.037 336.613 349.728 336.879 349.421C336.912 349.383 336.945 349.346 336.978 349.308C337.997 348.159 339.095 346.007 340.682 341.636C341.705 338.653 342.188 335.168 342.944 329.671L342.97 329.485C343.212 327.886 343.211 325.225 343.319 320.899C343.362 319.17 343.436 316.934 343.679 314.95C343.795 314.002 344.02 312.481 344.537 310.861C344.763 310.154 346.21 305.204 351.313 302.226L351.707 302.004C351.84 301.932 351.975 301.863 352.11 301.795C358.67 298.513 364.501 301.178 366.409 302.242C368.899 303.632 370.807 305.533 372.148 307.412L372.145 307.413C374.14 310.188 374.905 313.121 375.197 314.285C375.605 315.915 375.871 317.583 376.057 318.851C376.462 321.625 376.611 323.096 376.86 324.395L376.973 324.944L376.987 325.005C378.042 329.822 378.846 333.935 379.959 337.701L380.186 338.451L380.189 338.463C381.271 341.956 382.529 345.376 383.968 348.766L384.596 350.217L384.654 350.353C386.555 354.79 388 358.115 389.68 360.829L390.019 361.364L390.104 361.496C392.391 365.1 394.373 367.673 396.315 369.394C398.628 371.321 401.622 373.047 404.567 374.163C407.806 375.347 410.862 375.923 413.083 375.891C416.152 375.847 418.72 375.258 420.327 374.467C421.919 373.682 423.345 372.134 427.844 367.796C430.851 364.843 433.557 361.849 435.858 358.814L435.88 358.784C438.305 355.603 440.417 352.316 442.187 348.93C442.199 348.906 442.212 348.882 442.225 348.859C444.147 345.232 445.806 341.463 447.064 337.739C448.326 334.002 449.328 329.886 450.139 325.593C450.913 321.501 451.438 317.088 451.866 312.436C451.872 312.369 451.879 312.302 451.886 312.235C452.356 307.829 452.65 303.355 452.768 298.939C452.893 294.169 452.943 289.844 452.719 285.641C452.716 285.579 452.713 285.517 452.711 285.455C452.528 280.875 452.239 276.844 451.578 273.067L451.452 272.389C450.793 269.007 449.696 265.516 448.312 261.048C446.932 256.729 445.476 252.605 443.825 248.617C443.803 248.564 443.781 248.511 443.76 248.458C442.037 244.148 440.394 240.365 438.493 236.971C438.478 236.945 438.464 236.918 438.45 236.892C436.39 233.159 434.143 229.648 431.683 226.507C428.96 223.165 426.22 220.214 423.452 217.873C419.622 214.635 417.074 212.853 415.433 212.221C415.388 212.204 415.343 212.186 415.298 212.168C413.732 211.547 411.525 211.206 409.466 211.244C401.701 211.388 395.289 205.214 395.145 197.454C395.001 189.694 401.18 183.286 408.945 183.142C413.733 183.054 419.754 183.723 425.54 185.992C425.547 185.995 425.554 185.997 425.561 186C425.6 186.015 425.639 186.03 425.677 186.045C432.267 188.616 438.077 193.421 441.617 196.414C446.218 200.303 450.21 204.721 453.583 208.869C453.631 208.928 453.678 208.987 453.725 209.047C457.356 213.664 460.441 218.54 463.077 223.318C465.872 228.318 468.041 233.435 469.878 238.03C471.634 242.287 473.158 246.535 474.535 250.738L475.124 252.558L475.161 252.675C476.397 256.667 478.034 261.762 479.07 267.08L479.269 268.146L479.274 268.178C480.254 273.761 480.605 279.221 480.805 284.146L480.854 285.151C481.081 290.166 481.005 295.061 480.884 299.678V299.682C480.748 304.765 480.41 309.916 479.873 315.01C479.409 320.053 478.786 325.463 477.775 330.811C476.802 335.957 475.51 341.409 473.712 346.729C471.911 352.062 469.619 357.222 467.079 362.014L467.078 362.013C464.523 366.892 461.549 371.493 458.254 375.816L458.253 375.815C454.951 380.166 451.292 384.178 447.552 387.85C447.521 387.88 447.489 387.911 447.458 387.941C445.148 390.167 439.443 396.386 432.76 399.678L432.758 399.679C426.333 402.843 419.34 403.912 413.486 403.996C406.799 404.091 400.192 402.505 394.786 400.516C394.751 400.503 394.716 400.49 394.68 400.477C388.884 398.292 383.016 394.955 378.086 390.801C378.023 390.748 377.96 390.694 377.898 390.639C372.858 386.238 369.129 380.925 366.352 376.548C363.885 372.729 361.924 368.59 360.351 365.012C359.669 365.973 358.931 366.919 358.131 367.831L358.132 367.832C358.099 367.869 358.066 367.906 358.034 367.944L358.033 367.943C356.259 369.978 353.758 372.602 350.847 374.864C348.382 376.779 343.331 380.292 336.836 380.516C336.757 380.519 336.678 380.521 336.598 380.523C330.11 380.637 325.029 377.428 322.547 375.667C319.664 373.622 317.155 371.199 315.607 369.682C315.604 369.678 315.6 369.675 315.597 369.671C313.084 367.204 310.926 364.378 309.1 361.548C308.611 362.556 308.089 363.561 307.535 364.551L307.536 364.551C305.555 368.119 302.003 374.748 296.286 379.572L296.287 379.573C296.267 379.59 296.246 379.606 296.226 379.622C296.202 379.643 296.179 379.665 296.154 379.686L296.153 379.685C290.72 384.286 283.778 387.426 277.592 388.929C277.53 388.944 277.468 388.958 277.407 388.972C270.745 390.496 263.697 390.354 257.4 389.023C251.137 387.699 244.554 384.898 239.184 381.181C236.647 383.329 233.777 385.494 230.642 387.308C230.621 387.32 230.601 387.332 230.58 387.344C225.356 390.331 219.491 392.617 213.521 393.829C207.735 395.004 201.432 395.284 195.358 394.45C195.322 394.446 195.286 394.44 195.249 394.436C195.196 394.428 195.143 394.423 195.09 394.415C188.883 393.616 182.445 391.618 176.94 388.821C176.914 388.808 176.888 388.795 176.862 388.781C170.936 385.724 166.189 381.518 162.597 378.063L162.592 378.059C158.224 373.853 154.746 369.146 151.925 365.053C148.708 360.548 145.979 355.77 143.664 351.587C141.097 346.95 138.779 341.68 137.03 338.015C136.994 337.94 136.958 337.864 136.924 337.788C134.704 332.916 133.175 329.22 131.184 325.174C129.243 321.293 127.104 317.424 124.797 313.255C124.77 313.206 124.743 313.157 124.717 313.108C122.447 308.89 120.438 305.166 118.247 301.681C118.2 301.607 118.154 301.532 118.109 301.457C115.755 297.552 113.55 294.068 111.164 290.865C108.571 287.387 105.961 284.182 103.252 281.365C101.022 279.049 98.9026 276.982 96.8383 275.228C93.9861 276.941 90.7593 278.645 87.3351 279.905C87.24 279.94 87.1444 279.973 87.0486 280.006C82.7848 281.471 75.5372 283.833 67.7932 283.062C67.7737 283.06 67.7542 283.06 67.7346 283.058C65.389 282.825 62.6575 282.319 59.981 281.613C59.9704 281.99 59.9596 282.363 59.9499 282.731C59.8726 288.303 59.6357 291.95 59.6972 296.634C59.7246 298.688 59.8352 300.805 59.9709 303.202C60.0853 305.222 60.221 307.493 60.3005 309.805L60.3307 310.798V310.803C60.4647 315.896 60.3994 321.177 60.3994 325.842C60.3994 331.609 60.1705 334.908 60.2474 339.311L60.2676 340.206L60.2712 340.391C60.2961 342.282 60.4452 344.201 60.6374 346.71C60.8176 349.062 61.0375 351.957 61.0375 354.99C61.0375 360.999 60.2235 364.94 61.6299 382.44C62.2516 390.176 56.479 396.952 48.7374 397.574C40.9961 398.195 34.2165 392.427 33.5946 384.69C32.069 365.707 32.9125 359.059 32.9125 354.99ZM235.002 257.778C234.81 257.8 234.511 257.847 234.131 257.942C233.675 258.056 233.207 258.211 232.777 258.392C232.669 258.438 232.57 258.481 232.479 258.524C232.44 258.666 232.398 258.827 232.353 259.011C232.151 259.83 231.966 260.775 231.726 262.063C231.517 263.185 231.239 264.719 230.912 266.199L230.913 266.2C230.102 270.004 229.646 274.305 229.275 279.057C229.013 283.164 229.111 287.43 229.299 292.185C229.481 296.799 229.772 301.017 230.368 305.09L230.618 306.719C231.22 310.501 231.947 314.141 232.86 317.604C233.939 321.698 235.241 325.713 236.758 329.592C237.61 331.769 238.515 333.88 239.475 335.908C241.27 332.431 242.767 329.027 243.89 325.665C245.017 322.232 245.83 318.363 246.543 314.035C247.125 310.08 247.415 305.786 247.597 301.235C247.6 301.176 247.602 301.117 247.605 301.058C247.842 296.569 247.888 292.31 247.617 288.188L247.498 286.567C247.199 282.851 246.728 279.35 245.996 276.178C244.907 271.769 243.885 268.47 242.515 265.81C242.502 265.785 242.489 265.759 242.477 265.734C241.367 263.545 240.47 261.829 239.538 260.399C238.793 259.255 238.357 258.826 238.296 258.76C237.412 258.18 235.812 257.759 235.002 257.778ZM59.125 239.035C59.125 239.781 59.1295 240.528 59.136 241.277C64.3441 238.981 70.1991 237.755 75.0872 237.557H75.0945C82.8594 237.246 90.3893 239.743 95.2004 241.545C95.5835 241.194 95.9662 240.839 96.3485 240.478C99.1307 237.794 101.753 234.804 104.407 231.456C104.437 231.418 104.469 231.38 104.499 231.342C107.061 228.179 109.399 224.737 112.225 220.595L112.251 220.556C116.042 215.038 117.886 213.054 119.344 209.959C119.366 209.911 119.389 209.863 119.412 209.816C120.868 206.814 121.984 203.231 122.949 199.026L122.959 198.985C123.737 195.643 124.011 191.907 124.344 186.832L124.36 186.619C124.739 181.938 124.981 177.974 124.78 174.214C124.556 170.081 124.065 166.082 123.214 162.426C123.211 162.413 123.208 162.399 123.205 162.386C122.237 158.173 121.113 154.556 119.693 151.58C119.681 151.556 119.67 151.531 119.659 151.507C117.732 147.41 116.119 144.664 114.476 142.889C114.444 142.854 114.411 142.82 114.38 142.785C112.36 140.558 109.918 138.723 107.586 137.61C107.507 137.572 107.428 137.533 107.35 137.494C104.642 136.139 101.48 135.272 98.9275 135.134H98.9165C96.1659 134.983 92.8959 135.464 90.2694 136.417C90.1748 136.451 90.0791 136.484 89.9837 136.516C87.6156 137.318 84.9523 138.864 82.5845 140.885L82.5854 140.886C80.6277 142.565 78.6361 145.211 75.8956 149.259C73.6981 152.505 71.7287 156.064 70.0665 159.766C68.501 163.253 67.2055 167.123 66.0574 171.298C65.0771 175.147 64.5832 179.073 63.7338 184.457C63.7307 184.476 63.7277 184.496 63.7246 184.515C62.9957 189.012 62.3824 193.485 61.824 198.018C61.2813 202.485 60.8541 206.997 60.4827 211.643C60.4778 211.705 60.472 211.766 60.4662 211.828C60.0197 216.615 59.6026 221.168 59.3639 225.607C59.1858 230.048 59.125 234.473 59.125 239.035Z"/>
</mask>
<path d="M32.9125 354.99C32.9125 353.176 32.7811 351.288 32.5948 348.856C32.4242 346.629 32.1976 343.836 32.1517 340.945L32.1325 340.021C32.0553 335.305 32.2744 329.283 32.2744 325.842C32.2744 320.686 32.3366 316.146 32.2158 311.546L32.1609 309.939C32.0943 308.319 31.9959 306.647 31.8908 304.79C31.7557 302.404 31.6113 299.737 31.575 297.008V297.006C31.5096 292.035 31.7773 286.136 31.8295 282.22L31.8331 282.037C31.9676 276.924 32.1394 272.667 32.0245 268.297C32.0228 268.235 32.0216 268.172 32.0208 268.11C31.957 263.19 31.569 259.882 31.3296 253.819L31.1959 250.141C31.0756 246.459 31 242.761 31 239.035C31 234.191 31.0653 229.335 31.2664 224.37L31.2747 224.191C31.5444 219.13 32.0121 214.058 32.452 209.341C32.8438 204.448 33.306 199.549 33.9068 194.606L33.9095 194.583C34.4984 189.803 35.1604 184.963 35.9612 180.021C36.6334 175.752 37.4126 169.775 38.8342 164.235L38.8928 164.017C40.2848 158.933 42.0378 153.537 44.407 148.26C46.6966 143.16 49.4443 138.172 52.6009 133.509C55.2145 129.648 59.0866 124.002 64.2675 119.558C64.2728 119.553 64.2787 119.549 64.284 119.544C68.8888 115.606 74.5822 112.079 80.8221 109.943C86.9535 107.744 93.9455 106.714 100.446 107.069C107.259 107.437 114.099 109.467 119.77 112.277C125.653 115.097 130.928 119.204 135.124 123.806C135.136 123.819 135.148 123.832 135.16 123.845C135.18 123.867 135.201 123.888 135.221 123.91C139.873 128.974 142.941 134.942 145.077 139.479C147.729 145.035 149.408 150.843 150.607 156.059C151.841 161.358 152.494 166.694 152.807 171.71L152.865 172.709L152.866 172.719C153.172 178.459 152.787 184.001 152.406 188.723C152.104 193.326 151.738 199.373 150.362 205.31L150.363 205.311C149.171 210.501 147.498 216.303 144.788 221.931L144.79 221.932C142.055 227.737 137.302 233.758 135.463 236.425C132.808 240.319 129.792 244.788 126.362 249.023L126.361 249.022C124.104 251.866 121.703 254.698 119.092 257.456C120.17 258.483 121.202 259.504 122.182 260.501L123.527 261.886L123.53 261.889C127.323 265.833 130.703 270.027 133.72 274.076C136.908 278.353 139.65 282.728 142.119 286.821C144.864 291.196 147.288 295.709 149.457 299.74C151.429 303.303 153.528 307.093 155.522 310.987L156.376 312.676L156.413 312.751C158.615 317.223 160.771 322.298 162.496 326.088C164.78 330.881 166.275 334.372 168.274 337.983C170.391 341.808 172.363 345.215 174.444 348.198L174.861 348.789L175.014 349.005C177.531 352.662 179.76 355.558 182.103 357.815L183.213 358.863C185.721 361.19 187.786 362.778 189.729 363.787C192.255 365.064 195.382 366.054 198.234 366.478L198.804 366.556L199.072 366.592C201.84 366.987 204.997 366.878 207.921 366.284C210.739 365.712 213.786 364.56 216.586 362.962C217.873 362.214 219.221 361.227 220.685 360.002C219.505 358.12 218.394 356.223 217.346 354.331C214.685 349.585 212.455 344.662 210.562 339.823C208.637 334.9 207.007 329.858 205.664 324.768C204.286 319.541 203.301 314.29 202.548 309.218C202.546 309.209 202.545 309.199 202.543 309.19C201.739 303.704 201.395 298.364 201.195 293.292C201.001 288.383 200.845 282.851 201.214 277.16L201.227 276.979C201.618 271.949 202.182 266.079 203.405 260.343C203.414 260.298 203.425 260.253 203.435 260.208C203.637 259.305 203.811 258.34 204.076 256.919C204.316 255.63 204.628 253.98 205.04 252.304C205.783 249.28 207.286 244.156 211.151 239.856C214.384 236.254 218.432 233.934 221.842 232.497C225.349 231.018 229.238 230.025 232.986 229.741L233.171 229.728C240.293 229.282 248.081 231.473 254.01 235.447L254.579 235.838L254.603 235.855C258.543 238.643 261.286 242.268 263.108 245.064C264.981 247.939 266.507 250.944 267.564 253.028C270.495 258.747 272.135 264.703 273.327 269.542C273.342 269.601 273.356 269.66 273.37 269.72C274.523 274.671 275.161 279.677 275.535 284.342L275.68 286.32L275.681 286.332C276.043 291.838 275.966 297.21 275.7 302.357L275.618 304.245C275.408 308.702 275.057 313.503 274.348 318.275C274.337 318.346 274.326 318.417 274.314 318.487C273.502 323.429 272.408 328.965 270.613 334.433C270.606 334.452 270.6 334.472 270.593 334.491C268.836 339.767 266.594 344.741 264.17 349.379C262.398 352.816 260.394 356.33 258.15 359.763C259.803 360.55 261.591 361.179 263.221 361.524C265.934 362.098 268.785 362.09 271.031 361.595C273.691 360.933 276.46 359.536 278.002 358.217L278.135 358.105C279.223 357.197 280.477 355.356 282.943 350.915L282.979 350.85C284.556 348.044 285.855 344.535 287.397 339.971C287.403 339.952 287.411 339.933 287.417 339.914C288.676 336.239 289.683 332.162 290.578 327.801C291.423 323.625 292.063 319.3 292.603 314.761C292.706 313.753 292.8 312.738 292.886 311.719C292.586 310.099 292.303 308.461 292.048 306.801C292.047 306.792 292.046 306.783 292.044 306.774C291.891 305.768 291.68 304.611 291.408 303.123C291.153 301.729 290.849 300.062 290.6 298.414C290.355 296.79 290.113 294.862 290.04 292.915C289.975 291.175 289.985 288.321 290.883 285.325C290.91 285.237 290.937 285.15 290.965 285.063C291.928 282.063 293.558 279.533 295.069 277.752C295.824 276.862 297.04 275.574 298.709 274.434C299.53 273.874 300.967 272.998 302.914 272.408C304.704 271.864 308.053 271.237 311.882 272.569C311.927 272.584 311.972 272.6 312.016 272.616C312.077 272.638 312.138 272.66 312.2 272.683C316.182 274.158 318.371 276.953 319.329 278.445C320.386 280.094 320.898 281.617 321.139 282.434C321.632 284.104 321.794 285.644 321.866 286.483C322.025 288.34 322.012 290.402 321.975 292.055C321.934 293.817 321.848 295.694 321.772 297.322C321.692 299.04 321.626 300.424 321.599 301.509V301.513C321.528 304.338 321.398 307.184 321.214 310.024C321.626 312.005 322.075 313.993 322.555 315.997C323.583 320.281 324.886 324.42 326.361 329.318C326.378 329.374 326.395 329.431 326.411 329.488C328.261 335.92 328.485 338.153 329.858 341.031C329.868 341.052 329.878 341.074 329.888 341.095C331.727 344.997 333.68 348.018 335.297 349.611L336.053 350.341C336.336 350.037 336.613 349.728 336.879 349.421C336.912 349.383 336.945 349.346 336.978 349.308C337.997 348.159 339.095 346.007 340.682 341.636C341.705 338.653 342.188 335.168 342.944 329.671L342.97 329.485C343.212 327.886 343.211 325.225 343.319 320.899C343.362 319.17 343.436 316.934 343.679 314.95C343.795 314.002 344.02 312.481 344.537 310.861C344.763 310.154 346.21 305.204 351.313 302.226L351.707 302.004C351.84 301.932 351.975 301.863 352.11 301.795C358.67 298.513 364.501 301.178 366.409 302.242C368.899 303.632 370.807 305.533 372.148 307.412L372.145 307.413C374.14 310.188 374.905 313.121 375.197 314.285C375.605 315.915 375.871 317.583 376.057 318.851C376.462 321.625 376.611 323.096 376.86 324.395L376.973 324.944L376.987 325.005C378.042 329.822 378.846 333.935 379.959 337.701L380.186 338.451L380.189 338.463C381.271 341.956 382.529 345.376 383.968 348.766L384.596 350.217L384.654 350.353C386.555 354.79 388 358.115 389.68 360.829L390.019 361.364L390.104 361.496C392.391 365.1 394.373 367.673 396.315 369.394C398.628 371.321 401.622 373.047 404.567 374.163C407.806 375.347 410.862 375.923 413.083 375.891C416.152 375.847 418.72 375.258 420.327 374.467C421.919 373.682 423.345 372.134 427.844 367.796C430.851 364.843 433.557 361.849 435.858 358.814L435.88 358.784C438.305 355.603 440.417 352.316 442.187 348.93C442.199 348.906 442.212 348.882 442.225 348.859C444.147 345.232 445.806 341.463 447.064 337.739C448.326 334.002 449.328 329.886 450.139 325.593C450.913 321.501 451.438 317.088 451.866 312.436C451.872 312.369 451.879 312.302 451.886 312.235C452.356 307.829 452.65 303.355 452.768 298.939C452.893 294.169 452.943 289.844 452.719 285.641C452.716 285.579 452.713 285.517 452.711 285.455C452.528 280.875 452.239 276.844 451.578 273.067L451.452 272.389C450.793 269.007 449.696 265.516 448.312 261.048C446.932 256.729 445.476 252.605 443.825 248.617C443.803 248.564 443.781 248.511 443.76 248.458C442.037 244.148 440.394 240.365 438.493 236.971C438.478 236.945 438.464 236.918 438.45 236.892C436.39 233.159 434.143 229.648 431.683 226.507C428.96 223.165 426.22 220.214 423.452 217.873C419.622 214.635 417.074 212.853 415.433 212.221C415.388 212.204 415.343 212.186 415.298 212.168C413.732 211.547 411.525 211.206 409.466 211.244C401.701 211.388 395.289 205.214 395.145 197.454C395.001 189.694 401.18 183.286 408.945 183.142C413.733 183.054 419.754 183.723 425.54 185.992C425.547 185.995 425.554 185.997 425.561 186C425.6 186.015 425.639 186.03 425.677 186.045C432.267 188.616 438.077 193.421 441.617 196.414C446.218 200.303 450.21 204.721 453.583 208.869C453.631 208.928 453.678 208.987 453.725 209.047C457.356 213.664 460.441 218.54 463.077 223.318C465.872 228.318 468.041 233.435 469.878 238.03C471.634 242.287 473.158 246.535 474.535 250.738L475.124 252.558L475.161 252.675C476.397 256.667 478.034 261.762 479.07 267.08L479.269 268.146L479.274 268.178C480.254 273.761 480.605 279.221 480.805 284.146L480.854 285.151C481.081 290.166 481.005 295.061 480.884 299.678V299.682C480.748 304.765 480.41 309.916 479.873 315.01C479.409 320.053 478.786 325.463 477.775 330.811C476.802 335.957 475.51 341.409 473.712 346.729C471.911 352.062 469.619 357.222 467.079 362.014L467.078 362.013C464.523 366.892 461.549 371.493 458.254 375.816L458.253 375.815C454.951 380.166 451.292 384.178 447.552 387.85C447.521 387.88 447.489 387.911 447.458 387.941C445.148 390.167 439.443 396.386 432.76 399.678L432.758 399.679C426.333 402.843 419.34 403.912 413.486 403.996C406.799 404.091 400.192 402.505 394.786 400.516C394.751 400.503 394.716 400.49 394.68 400.477C388.884 398.292 383.016 394.955 378.086 390.801C378.023 390.748 377.96 390.694 377.898 390.639C372.858 386.238 369.129 380.925 366.352 376.548C363.885 372.729 361.924 368.59 360.351 365.012C359.669 365.973 358.931 366.919 358.131 367.831L358.132 367.832C358.099 367.869 358.066 367.906 358.034 367.944L358.033 367.943C356.259 369.978 353.758 372.602 350.847 374.864C348.382 376.779 343.331 380.292 336.836 380.516C336.757 380.519 336.678 380.521 336.598 380.523C330.11 380.637 325.029 377.428 322.547 375.667C319.664 373.622 317.155 371.199 315.607 369.682C315.604 369.678 315.6 369.675 315.597 369.671C313.084 367.204 310.926 364.378 309.1 361.548C308.611 362.556 308.089 363.561 307.535 364.551L307.536 364.551C305.555 368.119 302.003 374.748 296.286 379.572L296.287 379.573C296.267 379.59 296.246 379.606 296.226 379.622C296.202 379.643 296.179 379.665 296.154 379.686L296.153 379.685C290.72 384.286 283.778 387.426 277.592 388.929C277.53 388.944 277.468 388.958 277.407 388.972C270.745 390.496 263.697 390.354 257.4 389.023C251.137 387.699 244.554 384.898 239.184 381.181C236.647 383.329 233.777 385.494 230.642 387.308C230.621 387.32 230.601 387.332 230.58 387.344C225.356 390.331 219.491 392.617 213.521 393.829C207.735 395.004 201.432 395.284 195.358 394.45C195.322 394.446 195.286 394.44 195.249 394.436C195.196 394.428 195.143 394.423 195.09 394.415C188.883 393.616 182.445 391.618 176.94 388.821C176.914 388.808 176.888 388.795 176.862 388.781C170.936 385.724 166.189 381.518 162.597 378.063L162.592 378.059C158.224 373.853 154.746 369.146 151.925 365.053C148.708 360.548 145.979 355.77 143.664 351.587C141.097 346.95 138.779 341.68 137.03 338.015C136.994 337.94 136.958 337.864 136.924 337.788C134.704 332.916 133.175 329.22 131.184 325.174C129.243 321.293 127.104 317.424 124.797 313.255C124.77 313.206 124.743 313.157 124.717 313.108C122.447 308.89 120.438 305.166 118.247 301.681C118.2 301.607 118.154 301.532 118.109 301.457C115.755 297.552 113.55 294.068 111.164 290.865C108.571 287.387 105.961 284.182 103.252 281.365C101.022 279.049 98.9026 276.982 96.8383 275.228C93.9861 276.941 90.7593 278.645 87.3351 279.905C87.24 279.94 87.1444 279.973 87.0486 280.006C82.7848 281.471 75.5372 283.833 67.7932 283.062C67.7737 283.06 67.7542 283.06 67.7346 283.058C65.389 282.825 62.6575 282.319 59.981 281.613C59.9704 281.99 59.9596 282.363 59.9499 282.731C59.8726 288.303 59.6357 291.95 59.6972 296.634C59.7246 298.688 59.8352 300.805 59.9709 303.202C60.0853 305.222 60.221 307.493 60.3005 309.805L60.3307 310.798V310.803C60.4647 315.896 60.3994 321.177 60.3994 325.842C60.3994 331.609 60.1705 334.908 60.2474 339.311L60.2676 340.206L60.2712 340.391C60.2961 342.282 60.4452 344.201 60.6374 346.71C60.8176 349.062 61.0375 351.957 61.0375 354.99C61.0375 360.999 60.2235 364.94 61.6299 382.44C62.2516 390.176 56.479 396.952 48.7374 397.574C40.9961 398.195 34.2165 392.427 33.5946 384.69C32.069 365.707 32.9125 359.059 32.9125 354.99ZM235.002 257.778C234.81 257.8 234.511 257.847 234.131 257.942C233.675 258.056 233.207 258.211 232.777 258.392C232.669 258.438 232.57 258.481 232.479 258.524C232.44 258.666 232.398 258.827 232.353 259.011C232.151 259.83 231.966 260.775 231.726 262.063C231.517 263.185 231.239 264.719 230.912 266.199L230.913 266.2C230.102 270.004 229.646 274.305 229.275 279.057C229.013 283.164 229.111 287.43 229.299 292.185C229.481 296.799 229.772 301.017 230.368 305.09L230.618 306.719C231.22 310.501 231.947 314.141 232.86 317.604C233.939 321.698 235.241 325.713 236.758 329.592C237.61 331.769 238.515 333.88 239.475 335.908C241.27 332.431 242.767 329.027 243.89 325.665C245.017 322.232 245.83 318.363 246.543 314.035C247.125 310.08 247.415 305.786 247.597 301.235C247.6 301.176 247.602 301.117 247.605 301.058C247.842 296.569 247.888 292.31 247.617 288.188L247.498 286.567C247.199 282.851 246.728 279.35 245.996 276.178C244.907 271.769 243.885 268.47 242.515 265.81C242.502 265.785 242.489 265.759 242.477 265.734C241.367 263.545 240.47 261.829 239.538 260.399C238.793 259.255 238.357 258.826 238.296 258.76C237.412 258.18 235.812 257.759 235.002 257.778ZM59.125 239.035C59.125 239.781 59.1295 240.528 59.136 241.277C64.3441 238.981 70.1991 237.755 75.0872 237.557H75.0945C82.8594 237.246 90.3893 239.743 95.2004 241.545C95.5835 241.194 95.9662 240.839 96.3485 240.478C99.1307 237.794 101.753 234.804 104.407 231.456C104.437 231.418 104.469 231.38 104.499 231.342C107.061 228.179 109.399 224.737 112.225 220.595L112.251 220.556C116.042 215.038 117.886 213.054 119.344 209.959C119.366 209.911 119.389 209.863 119.412 209.816C120.868 206.814 121.984 203.231 122.949 199.026L122.959 198.985C123.737 195.643 124.011 191.907 124.344 186.832L124.36 186.619C124.739 181.938 124.981 177.974 124.78 174.214C124.556 170.081 124.065 166.082 123.214 162.426C123.211 162.413 123.208 162.399 123.205 162.386C122.237 158.173 121.113 154.556 119.693 151.58C119.681 151.556 119.67 151.531 119.659 151.507C117.732 147.41 116.119 144.664 114.476 142.889C114.444 142.854 114.411 142.82 114.38 142.785C112.36 140.558 109.918 138.723 107.586 137.61C107.507 137.572 107.428 137.533 107.35 137.494C104.642 136.139 101.48 135.272 98.9275 135.134H98.9165C96.1659 134.983 92.8959 135.464 90.2694 136.417C90.1748 136.451 90.0791 136.484 89.9837 136.516C87.6156 137.318 84.9523 138.864 82.5845 140.885L82.5854 140.886C80.6277 142.565 78.6361 145.211 75.8956 149.259C73.6981 152.505 71.7287 156.064 70.0665 159.766C68.501 163.253 67.2055 167.123 66.0574 171.298C65.0771 175.147 64.5832 179.073 63.7338 184.457C63.7307 184.476 63.7277 184.496 63.7246 184.515C62.9957 189.012 62.3824 193.485 61.824 198.018C61.2813 202.485 60.8541 206.997 60.4827 211.643C60.4778 211.705 60.472 211.766 60.4662 211.828C60.0197 216.615 59.6026 221.168 59.3639 225.607C59.1858 230.048 59.125 234.473 59.125 239.035Z" fill="black"/>
<path d="M32.9125 354.99C32.9125 353.176 32.7811 351.288 32.5948 348.856C32.4242 346.629 32.1976 343.836 32.1517 340.945L32.1325 340.021C32.0553 335.305 32.2744 329.283 32.2744 325.842C32.2744 320.686 32.3366 316.146 32.2158 311.546L32.1609 309.939C32.0943 308.319 31.9959 306.647 31.8908 304.79C31.7557 302.404 31.6113 299.737 31.575 297.008V297.006C31.5096 292.035 31.7773 286.136 31.8295 282.22L31.8331 282.037C31.9676 276.924 32.1394 272.667 32.0245 268.297C32.0228 268.235 32.0216 268.172 32.0208 268.11C31.957 263.19 31.569 259.882 31.3296 253.819L31.1959 250.141C31.0756 246.459 31 242.761 31 239.035C31 234.191 31.0653 229.335 31.2664 224.37L31.2747 224.191C31.5444 219.13 32.0121 214.058 32.452 209.341C32.8438 204.448 33.306 199.549 33.9068 194.606L33.9095 194.583C34.4984 189.803 35.1604 184.963 35.9612 180.021C36.6334 175.752 37.4126 169.775 38.8342 164.235L38.8928 164.017C40.2848 158.933 42.0378 153.537 44.407 148.26C46.6966 143.16 49.4443 138.172 52.6009 133.509C55.2145 129.648 59.0866 124.002 64.2675 119.558C64.2728 119.553 64.2787 119.549 64.284 119.544C68.8888 115.606 74.5822 112.079 80.8221 109.943C86.9535 107.744 93.9455 106.714 100.446 107.069C107.259 107.437 114.099 109.467 119.77 112.277C125.653 115.097 130.928 119.204 135.124 123.806C135.136 123.819 135.148 123.832 135.16 123.845C135.18 123.867 135.201 123.888 135.221 123.91C139.873 128.974 142.941 134.942 145.077 139.479C147.729 145.035 149.408 150.843 150.607 156.059C151.841 161.358 152.494 166.694 152.807 171.71L152.865 172.709L152.866 172.719C153.172 178.459 152.787 184.001 152.406 188.723C152.104 193.326 151.738 199.373 150.362 205.31L150.363 205.311C149.171 210.501 147.498 216.303 144.788 221.931L144.79 221.932C142.055 227.737 137.302 233.758 135.463 236.425C132.808 240.319 129.792 244.788 126.362 249.023L126.361 249.022C124.104 251.866 121.703 254.698 119.092 257.456C120.17 258.483 121.202 259.504 122.182 260.501L123.527 261.886L123.53 261.889C127.323 265.833 130.703 270.027 133.72 274.076C136.908 278.353 139.65 282.728 142.119 286.821C144.864 291.196 147.288 295.709 149.457 299.74C151.429 303.303 153.528 307.093 155.522 310.987L156.376 312.676L156.413 312.751C158.615 317.223 160.771 322.298 162.496 326.088C164.78 330.881 166.275 334.372 168.274 337.983C170.391 341.808 172.363 345.215 174.444 348.198L174.861 348.789L175.014 349.005C177.531 352.662 179.76 355.558 182.103 357.815L183.213 358.863C185.721 361.19 187.786 362.778 189.729 363.787C192.255 365.064 195.382 366.054 198.234 366.478L198.804 366.556L199.072 366.592C201.84 366.987 204.997 366.878 207.921 366.284C210.739 365.712 213.786 364.56 216.586 362.962C217.873 362.214 219.221 361.227 220.685 360.002C219.505 358.12 218.394 356.223 217.346 354.331C214.685 349.585 212.455 344.662 210.562 339.823C208.637 334.9 207.007 329.858 205.664 324.768C204.286 319.541 203.301 314.29 202.548 309.218C202.546 309.209 202.545 309.199 202.543 309.19C201.739 303.704 201.395 298.364 201.195 293.292C201.001 288.383 200.845 282.851 201.214 277.16L201.227 276.979C201.618 271.949 202.182 266.079 203.405 260.343C203.414 260.298 203.425 260.253 203.435 260.208C203.637 259.305 203.811 258.34 204.076 256.919C204.316 255.63 204.628 253.98 205.04 252.304C205.783 249.28 207.286 244.156 211.151 239.856C214.384 236.254 218.432 233.934 221.842 232.497C225.349 231.018 229.238 230.025 232.986 229.741L233.171 229.728C240.293 229.282 248.081 231.473 254.01 235.447L254.579 235.838L254.603 235.855C258.543 238.643 261.286 242.268 263.108 245.064C264.981 247.939 266.507 250.944 267.564 253.028C270.495 258.747 272.135 264.703 273.327 269.542C273.342 269.601 273.356 269.66 273.37 269.72C274.523 274.671 275.161 279.677 275.535 284.342L275.68 286.32L275.681 286.332C276.043 291.838 275.966 297.21 275.7 302.357L275.618 304.245C275.408 308.702 275.057 313.503 274.348 318.275C274.337 318.346 274.326 318.417 274.314 318.487C273.502 323.429 272.408 328.965 270.613 334.433C270.606 334.452 270.6 334.472 270.593 334.491C268.836 339.767 266.594 344.741 264.17 349.379C262.398 352.816 260.394 356.33 258.15 359.763C259.803 360.55 261.591 361.179 263.221 361.524C265.934 362.098 268.785 362.09 271.031 361.595C273.691 360.933 276.46 359.536 278.002 358.217L278.135 358.105C279.223 357.197 280.477 355.356 282.943 350.915L282.979 350.85C284.556 348.044 285.855 344.535 287.397 339.971C287.403 339.952 287.411 339.933 287.417 339.914C288.676 336.239 289.683 332.162 290.578 327.801C291.423 323.625 292.063 319.3 292.603 314.761C292.706 313.753 292.8 312.738 292.886 311.719C292.586 310.099 292.303 308.461 292.048 306.801C292.047 306.792 292.046 306.783 292.044 306.774C291.891 305.768 291.68 304.611 291.408 303.123C291.153 301.729 290.849 300.062 290.6 298.414C290.355 296.79 290.113 294.862 290.04 292.915C289.975 291.175 289.985 288.321 290.883 285.325C290.91 285.237 290.937 285.15 290.965 285.063C291.928 282.063 293.558 279.533 295.069 277.752C295.824 276.862 297.04 275.574 298.709 274.434C299.53 273.874 300.967 272.998 302.914 272.408C304.704 271.864 308.053 271.237 311.882 272.569C311.927 272.584 311.972 272.6 312.016 272.616C312.077 272.638 312.138 272.66 312.2 272.683C316.182 274.158 318.371 276.953 319.329 278.445C320.386 280.094 320.898 281.617 321.139 282.434C321.632 284.104 321.794 285.644 321.866 286.483C322.025 288.34 322.012 290.402 321.975 292.055C321.934 293.817 321.848 295.694 321.772 297.322C321.692 299.04 321.626 300.424 321.599 301.509V301.513C321.528 304.338 321.398 307.184 321.214 310.024C321.626 312.005 322.075 313.993 322.555 315.997C323.583 320.281 324.886 324.42 326.361 329.318C326.378 329.374 326.395 329.431 326.411 329.488C328.261 335.92 328.485 338.153 329.858 341.031C329.868 341.052 329.878 341.074 329.888 341.095C331.727 344.997 333.68 348.018 335.297 349.611L336.053 350.341C336.336 350.037 336.613 349.728 336.879 349.421C336.912 349.383 336.945 349.346 336.978 349.308C337.997 348.159 339.095 346.007 340.682 341.636C341.705 338.653 342.188 335.168 342.944 329.671L342.97 329.485C343.212 327.886 343.211 325.225 343.319 320.899C343.362 319.17 343.436 316.934 343.679 314.95C343.795 314.002 344.02 312.481 344.537 310.861C344.763 310.154 346.21 305.204 351.313 302.226L351.707 302.004C351.84 301.932 351.975 301.863 352.11 301.795C358.67 298.513 364.501 301.178 366.409 302.242C368.899 303.632 370.807 305.533 372.148 307.412L372.145 307.413C374.14 310.188 374.905 313.121 375.197 314.285C375.605 315.915 375.871 317.583 376.057 318.851C376.462 321.625 376.611 323.096 376.86 324.395L376.973 324.944L376.987 325.005C378.042 329.822 378.846 333.935 379.959 337.701L380.186 338.451L380.189 338.463C381.271 341.956 382.529 345.376 383.968 348.766L384.596 350.217L384.654 350.353C386.555 354.79 388 358.115 389.68 360.829L390.019 361.364L390.104 361.496C392.391 365.1 394.373 367.673 396.315 369.394C398.628 371.321 401.622 373.047 404.567 374.163C407.806 375.347 410.862 375.923 413.083 375.891C416.152 375.847 418.72 375.258 420.327 374.467C421.919 373.682 423.345 372.134 427.844 367.796C430.851 364.843 433.557 361.849 435.858 358.814L435.88 358.784C438.305 355.603 440.417 352.316 442.187 348.93C442.199 348.906 442.212 348.882 442.225 348.859C444.147 345.232 445.806 341.463 447.064 337.739C448.326 334.002 449.328 329.886 450.139 325.593C450.913 321.501 451.438 317.088 451.866 312.436C451.872 312.369 451.879 312.302 451.886 312.235C452.356 307.829 452.65 303.355 452.768 298.939C452.893 294.169 452.943 289.844 452.719 285.641C452.716 285.579 452.713 285.517 452.711 285.455C452.528 280.875 452.239 276.844 451.578 273.067L451.452 272.389C450.793 269.007 449.696 265.516 448.312 261.048C446.932 256.729 445.476 252.605 443.825 248.617C443.803 248.564 443.781 248.511 443.76 248.458C442.037 244.148 440.394 240.365 438.493 236.971C438.478 236.945 438.464 236.918 438.45 236.892C436.39 233.159 434.143 229.648 431.683 226.507C428.96 223.165 426.22 220.214 423.452 217.873C419.622 214.635 417.074 212.853 415.433 212.221C415.388 212.204 415.343 212.186 415.298 212.168C413.732 211.547 411.525 211.206 409.466 211.244C401.701 211.388 395.289 205.214 395.145 197.454C395.001 189.694 401.18 183.286 408.945 183.142C413.733 183.054 419.754 183.723 425.54 185.992C425.547 185.995 425.554 185.997 425.561 186C425.6 186.015 425.639 186.03 425.677 186.045C432.267 188.616 438.077 193.421 441.617 196.414C446.218 200.303 450.21 204.721 453.583 208.869C453.631 208.928 453.678 208.987 453.725 209.047C457.356 213.664 460.441 218.54 463.077 223.318C465.872 228.318 468.041 233.435 469.878 238.03C471.634 242.287 473.158 246.535 474.535 250.738L475.124 252.558L475.161 252.675C476.397 256.667 478.034 261.762 479.07 267.08L479.269 268.146L479.274 268.178C480.254 273.761 480.605 279.221 480.805 284.146L480.854 285.151C481.081 290.166 481.005 295.061 480.884 299.678V299.682C480.748 304.765 480.41 309.916 479.873 315.01C479.409 320.053 478.786 325.463 477.775 330.811C476.802 335.957 475.51 341.409 473.712 346.729C471.911 352.062 469.619 357.222 467.079 362.014L467.078 362.013C464.523 366.892 461.549 371.493 458.254 375.816L458.253 375.815C454.951 380.166 451.292 384.178 447.552 387.85C447.521 387.88 447.489 387.911 447.458 387.941C445.148 390.167 439.443 396.386 432.76 399.678L432.758 399.679C426.333 402.843 419.34 403.912 413.486 403.996C406.799 404.091 400.192 402.505 394.786 400.516C394.751 400.503 394.716 400.49 394.68 400.477C388.884 398.292 383.016 394.955 378.086 390.801C378.023 390.748 377.96 390.694 377.898 390.639C372.858 386.238 369.129 380.925 366.352 376.548C363.885 372.729 361.924 368.59 360.351 365.012C359.669 365.973 358.931 366.919 358.131 367.831L358.132 367.832C358.099 367.869 358.066 367.906 358.034 367.944L358.033 367.943C356.259 369.978 353.758 372.602 350.847 374.864C348.382 376.779 343.331 380.292 336.836 380.516C336.757 380.519 336.678 380.521 336.598 380.523C330.11 380.637 325.029 377.428 322.547 375.667C319.664 373.622 317.155 371.199 315.607 369.682C315.604 369.678 315.6 369.675 315.597 369.671C313.084 367.204 310.926 364.378 309.1 361.548C308.611 362.556 308.089 363.561 307.535 364.551L307.536 364.551C305.555 368.119 302.003 374.748 296.286 379.572L296.287 379.573C296.267 379.59 296.246 379.606 296.226 379.622C296.202 379.643 296.179 379.665 296.154 379.686L296.153 379.685C290.72 384.286 283.778 387.426 277.592 388.929C277.53 388.944 277.468 388.958 277.407 388.972C270.745 390.496 263.697 390.354 257.4 389.023C251.137 387.699 244.554 384.898 239.184 381.181C236.647 383.329 233.777 385.494 230.642 387.308C230.621 387.32 230.601 387.332 230.58 387.344C225.356 390.331 219.491 392.617 213.521 393.829C207.735 395.004 201.432 395.284 195.358 394.45C195.322 394.446 195.286 394.44 195.249 394.436C195.196 394.428 195.143 394.423 195.09 394.415C188.883 393.616 182.445 391.618 176.94 388.821C176.914 388.808 176.888 388.795 176.862 388.781C170.936 385.724 166.189 381.518 162.597 378.063L162.592 378.059C158.224 373.853 154.746 369.146 151.925 365.053C148.708 360.548 145.979 355.77 143.664 351.587C141.097 346.95 138.779 341.68 137.03 338.015C136.994 337.94 136.958 337.864 136.924 337.788C134.704 332.916 133.175 329.22 131.184 325.174C129.243 321.293 127.104 317.424 124.797 313.255C124.77 313.206 124.743 313.157 124.717 313.108C122.447 308.89 120.438 305.166 118.247 301.681C118.2 301.607 118.154 301.532 118.109 301.457C115.755 297.552 113.55 294.068 111.164 290.865C108.571 287.387 105.961 284.182 103.252 281.365C101.022 279.049 98.9026 276.982 96.8383 275.228C93.9861 276.941 90.7593 278.645 87.3351 279.905C87.24 279.94 87.1444 279.973 87.0486 280.006C82.7848 281.471 75.5372 283.833 67.7932 283.062C67.7737 283.06 67.7542 283.06 67.7346 283.058C65.389 282.825 62.6575 282.319 59.981 281.613C59.9704 281.99 59.9596 282.363 59.9499 282.731C59.8726 288.303 59.6357 291.95 59.6972 296.634C59.7246 298.688 59.8352 300.805 59.9709 303.202C60.0853 305.222 60.221 307.493 60.3005 309.805L60.3307 310.798V310.803C60.4647 315.896 60.3994 321.177 60.3994 325.842C60.3994 331.609 60.1705 334.908 60.2474 339.311L60.2676 340.206L60.2712 340.391C60.2961 342.282 60.4452 344.201 60.6374 346.71C60.8176 349.062 61.0375 351.957 61.0375 354.99C61.0375 360.999 60.2235 364.94 61.6299 382.44C62.2516 390.176 56.479 396.952 48.7374 397.574C40.9961 398.195 34.2165 392.427 33.5946 384.69C32.069 365.707 32.9125 359.059 32.9125 354.99ZM235.002 257.778C234.81 257.8 234.511 257.847 234.131 257.942C233.675 258.056 233.207 258.211 232.777 258.392C232.669 258.438 232.57 258.481 232.479 258.524C232.44 258.666 232.398 258.827 232.353 259.011C232.151 259.83 231.966 260.775 231.726 262.063C231.517 263.185 231.239 264.719 230.912 266.199L230.913 266.2C230.102 270.004 229.646 274.305 229.275 279.057C229.013 283.164 229.111 287.43 229.299 292.185C229.481 296.799 229.772 301.017 230.368 305.09L230.618 306.719C231.22 310.501 231.947 314.141 232.86 317.604C233.939 321.698 235.241 325.713 236.758 329.592C237.61 331.769 238.515 333.88 239.475 335.908C241.27 332.431 242.767 329.027 243.89 325.665C245.017 322.232 245.83 318.363 246.543 314.035C247.125 310.08 247.415 305.786 247.597 301.235C247.6 301.176 247.602 301.117 247.605 301.058C247.842 296.569 247.888 292.31 247.617 288.188L247.498 286.567C247.199 282.851 246.728 279.35 245.996 276.178C244.907 271.769 243.885 268.47 242.515 265.81C242.502 265.785 242.489 265.759 242.477 265.734C241.367 263.545 240.47 261.829 239.538 260.399C238.793 259.255 238.357 258.826 238.296 258.76C237.412 258.18 235.812 257.759 235.002 257.778ZM59.125 239.035C59.125 239.781 59.1295 240.528 59.136 241.277C64.3441 238.981 70.1991 237.755 75.0872 237.557H75.0945C82.8594 237.246 90.3893 239.743 95.2004 241.545C95.5835 241.194 95.9662 240.839 96.3485 240.478C99.1307 237.794 101.753 234.804 104.407 231.456C104.437 231.418 104.469 231.38 104.499 231.342C107.061 228.179 109.399 224.737 112.225 220.595L112.251 220.556C116.042 215.038 117.886 213.054 119.344 209.959C119.366 209.911 119.389 209.863 119.412 209.816C120.868 206.814 121.984 203.231 122.949 199.026L122.959 198.985C123.737 195.643 124.011 191.907 124.344 186.832L124.36 186.619C124.739 181.938 124.981 177.974 124.78 174.214C124.556 170.081 124.065 166.082 123.214 162.426C123.211 162.413 123.208 162.399 123.205 162.386C122.237 158.173 121.113 154.556 119.693 151.58C119.681 151.556 119.67 151.531 119.659 151.507C117.732 147.41 116.119 144.664 114.476 142.889C114.444 142.854 114.411 142.82 114.38 142.785C112.36 140.558 109.918 138.723 107.586 137.61C107.507 137.572 107.428 137.533 107.35 137.494C104.642 136.139 101.48 135.272 98.9275 135.134H98.9165C96.1659 134.983 92.8959 135.464 90.2694 136.417C90.1748 136.451 90.0791 136.484 89.9837 136.516C87.6156 137.318 84.9523 138.864 82.5845 140.885L82.5854 140.886C80.6277 142.565 78.6361 145.211 75.8956 149.259C73.6981 152.505 71.7287 156.064 70.0665 159.766C68.501 163.253 67.2055 167.123 66.0574 171.298C65.0771 175.147 64.5832 179.073 63.7338 184.457C63.7307 184.476 63.7277 184.496 63.7246 184.515C62.9957 189.012 62.3824 193.485 61.824 198.018C61.2813 202.485 60.8541 206.997 60.4827 211.643C60.4778 211.705 60.472 211.766 60.4662 211.828C60.0197 216.615 59.6026 221.168 59.3639 225.607C59.1858 230.048 59.125 234.473 59.125 239.035Z" stroke="#FEFCF6" stroke-width="40" stroke-linecap="round" stroke-linejoin="round" mask="url(#path-1-outside-1_3742_1596)"/>
</svg>
